<svg width="465" height="783" viewBox="0 0 465 783" fill="none" xmlns="http://www.w3.org/2000/svg">
<path fill-rule="evenodd" clip-rule="evenodd" d="M93.3973 17.0999C104.692 21.4498 111.758 31.4905 120.878 39.4462C132.516 49.5984 149.903 55.2153 154.121 70.0694C158.531 85.6006 154.098 104.568 142.583 115.885C131.442 126.835 112.939 121.311 97.8525 125.374C85.0293 128.828 73.7536 141.699 61.0434 137.846C48.3391 133.995 45.7051 117.377 37.3763 107.042C29.0791 96.7459 12.6297 90.7012 12.399 77.4825C12.1675 64.2156 28.9078 57.8976 36.3268 46.8964C43.5451 36.1928 43.681 20.0997 55.1269 14.1238C66.7522 8.05424 81.1573 12.386 93.3973 17.0999Z" fill="white" fill-opacity="0.02"/>
<path fill-rule="evenodd" clip-rule="evenodd" d="M346.178 563.545C363.741 570.305 374.732 585.898 388.917 598.255C407.018 614.024 434.053 622.755 440.62 645.819C447.486 669.934 440.605 699.378 422.711 716.941C405.396 733.934 376.626 725.346 353.173 731.644C333.239 736.998 315.717 756.974 295.954 750.984C276.2 744.997 272.094 719.197 259.139 703.145C246.232 687.155 220.655 677.76 220.288 657.238C219.919 636.641 245.941 626.843 257.469 609.768C268.684 593.155 268.885 568.171 286.677 558.9C304.747 549.485 327.145 556.219 346.178 563.545Z" fill="white" fill-opacity="0.02"/>
</svg>
