<svg width="42" height="42" viewBox="0 0 42 42" fill="none" xmlns="http://www.w3.org/2000/svg">
<path d="M24.2024 33.25C23.941 33.2509 23.6827 33.1932 23.4464 33.0811C23.2102 32.9691 23.0021 32.8055 22.8374 32.6025L14.3849 22.1025C14.1275 21.7894 13.9868 21.3966 13.9868 20.9912C13.9868 20.5859 14.1275 20.1931 14.3849 19.88L23.1349 9.37999C23.432 9.02262 23.8588 8.79787 24.3216 8.75521C24.7843 8.71254 25.245 8.85545 25.6024 9.15249C25.9598 9.44954 26.1845 9.87638 26.2272 10.3391C26.2699 10.8019 26.127 11.2626 25.8299 11.62L18.0074 21L25.5674 30.38C25.7814 30.6369 25.9174 30.9497 25.9591 31.2814C26.0009 31.6131 25.9468 31.9498 25.8032 32.2518C25.6596 32.5537 25.4325 32.8081 25.1489 32.9851C24.8652 33.162 24.5367 33.2539 24.2024 33.25Z" fill="white"/>
</svg>
