<svg width="20" height="21" viewBox="0 0 20 21" fill="none" xmlns="http://www.w3.org/2000/svg">
<path d="M15.0258 14.3475L18.595 17.9159L17.4158 19.095L13.8475 15.5259C12.5197 16.5902 10.8683 17.1691 9.16663 17.1667C5.02663 17.1667 1.66663 13.8067 1.66663 9.66669C1.66663 5.52669 5.02663 2.16669 9.16663 2.16669C13.3066 2.16669 16.6666 5.52669 16.6666 9.66669C16.669 11.3684 16.0901 13.0198 15.0258 14.3475ZM13.3541 13.7292C14.4117 12.6416 15.0023 11.1837 15 9.66669C15 6.44335 12.3891 3.83335 9.16663 3.83335C5.94329 3.83335 3.33329 6.44335 3.33329 9.66669C3.33329 12.8892 5.94329 15.5 9.16663 15.5C10.6837 15.5024 12.1415 14.9118 13.2291 13.8542L13.3541 13.7292V13.7292Z" fill="white" fill-opacity="0.5"/>
</svg>
