<svg width="25" height="25" viewBox="0 0 25 25" fill="none" xmlns="http://www.w3.org/2000/svg">
<path d="M5.57695 10.7479L5.57694 10.7479C4.84435 9.69194 4.90421 8.87757 4.98873 7.72762C4.99572 7.63252 5.00288 7.53514 5.00977 7.43513C5.00977 7.43512 5.00977 7.43512 5.00977 7.43511L5.57695 10.7479ZM5.57695 10.7479C5.7171 10.9498 5.80694 11.1996 5.88024 11.4679M5.57695 10.7479L5.88024 11.4679M10.4271 18.9612L10.3623 19.026C10.3364 19.0001 10.3099 18.9617 10.2851 18.9212C10.2591 18.8788 10.2309 18.8273 10.2019 18.7704C10.1439 18.6564 10.0812 18.517 10.0257 18.3776C9.97027 18.2386 9.92099 18.0968 9.89095 17.9787C9.87599 17.9199 9.86501 17.8639 9.86111 17.8155C9.85769 17.773 9.85736 17.7143 9.88479 17.6671C10.1071 17.2843 10.1701 17.0033 10.2579 16.6125C10.2778 16.5238 10.2989 16.4295 10.3235 16.3271C10.4 16.0086 10.3534 15.8291 10.2415 15.6868C10.1822 15.6113 10.1006 15.5414 9.99582 15.467C9.91292 15.4081 9.81958 15.3491 9.71488 15.2829C9.68648 15.2649 9.65724 15.2465 9.62715 15.2273C9.07252 14.8744 8.54873 14.4438 8.03315 14.02C7.76253 13.7976 7.49417 13.577 7.2248 13.3705L10.4271 18.9612ZM10.4271 18.9612L10.3623 19.026C10.7787 19.4424 11.1924 19.8248 11.6471 20.2004C11.8055 20.3313 11.8737 20.4649 11.8913 20.6012C11.9094 20.7416 11.8753 20.8972 11.8049 21.0725C11.7364 21.2429 11.6381 21.4217 11.5325 21.6136L11.5233 21.6304C11.4275 21.8044 11.3271 21.9882 11.2455 22.1774M10.4271 18.9612L11.2455 22.1774M9.82763 5.64285L9.81533 6.45833C9.84402 6.43101 9.8783 6.39762 9.91683 6.35967M9.82763 5.64285L10.1325 10.0574C9.93593 9.59719 10.337 9.33644 10.7523 9.06649C10.9215 8.95652 11.093 8.84502 11.2274 8.71788C11.3914 8.56286 11.6061 8.38401 11.8301 8.19743C12.434 7.69435 13.1054 7.1351 13.0305 6.83548C12.9278 6.42474 11.7299 5.26103 11.0263 5.44259C10.9597 5.45978 10.5647 5.85463 10.2375 6.18159C10.1127 6.30638 9.99772 6.42127 9.91469 6.50151L9.91683 6.35967M9.82763 5.64285C9.82928 5.5344 9.71976 5.4244 9.62157 5.32577C9.53815 5.24199 9.46292 5.16642 9.47097 5.10699C9.50025 4.89054 9.909 4.55732 10.2477 4.28125C10.3773 4.1756 10.4966 4.07832 10.5805 3.99915L9.82763 5.64285ZM9.91683 6.35967C9.98708 6.29049 10.0715 6.20614 10.162 6.11567C10.2313 6.04642 10.3042 5.97357 10.3771 5.90121C10.5109 5.76823 10.6435 5.63826 10.7494 5.53961C10.8022 5.49041 10.8496 5.44795 10.8877 5.41652C10.9067 5.40088 10.9247 5.38689 10.9408 5.37587C10.9533 5.36727 10.976 5.35231 11.0014 5.34577C11.2078 5.29249 11.4389 5.33994 11.6608 5.43377C11.8846 5.52838 12.1114 5.6753 12.3161 5.83877C12.5212 6.0025 12.7073 6.1854 12.8495 6.35472C12.9883 6.51997 13.0959 6.68469 13.1275 6.81121C13.1475 6.8911 13.1312 6.97316 13.0998 7.04902C13.0682 7.12539 13.0177 7.20434 12.9564 7.28352C12.8338 7.44191 12.6564 7.61556 12.4615 7.79029C12.282 7.95112 12.084 8.11608 11.8943 8.2741C11.8772 8.28832 11.8602 8.30249 11.8433 8.3166C11.6373 8.48825 11.4449 8.64982 11.2961 8.79054C11.1728 8.90715 11.0222 9.00957 10.8763 9.10507C10.8526 9.12055 10.8291 9.13584 10.8058 9.15099C10.6827 9.23106 10.5656 9.30717 10.4643 9.38773C10.3437 9.48362 10.2568 9.57736 10.2131 9.67682C10.1718 9.77106 10.1653 9.87943 10.2245 10.0181L10.2245 10.0181C10.2343 10.041 10.2498 10.0746 10.2691 10.1164C10.3312 10.2509 10.4323 10.4698 10.5054 10.6856C10.5535 10.8278 10.5927 10.9771 10.601 11.1088C10.609 11.2359 10.5898 11.3766 10.4848 11.4643L10.4848 11.4643C10.3686 11.5615 10.2361 11.5622 10.1167 11.516C10.0032 11.4721 9.89506 11.3845 9.80139 11.2914C9.66447 11.1554 9.53458 10.9813 9.45205 10.8707C9.42332 10.8322 9.40033 10.8014 9.38478 10.7826C9.18754 10.5437 8.87094 10.4622 8.49481 10.4444C8.30846 10.4355 8.11414 10.4425 7.92068 10.4504C7.90845 10.4509 7.89622 10.4514 7.884 10.4519C7.74184 10.4578 7.6 10.4637 7.46592 10.4628M9.91683 6.35967L9.92762 5.64438V5.64436C9.92885 5.56324 9.89202 5.49162 9.85265 5.43535C9.81258 5.3781 9.76072 5.32414 9.71495 5.27788C9.70684 5.26969 9.69897 5.26177 9.69135 5.25411C9.65329 5.21586 9.62145 5.18385 9.59749 5.15422C9.58351 5.13692 9.57573 5.12458 9.57192 5.11647C9.57157 5.11572 9.57128 5.11506 9.57103 5.11449C9.57511 5.09322 9.58673 5.06374 9.61028 5.02548C9.63559 4.98435 9.67145 4.93827 9.71663 4.88806C9.80709 4.78751 9.92792 4.67804 10.0577 4.56788C10.1418 4.49657 10.2273 4.42686 10.3096 4.35977C10.3549 4.32289 10.3991 4.2868 10.4417 4.25167C10.5583 4.15533 10.6643 4.06423 10.7272 3.99181L10.8041 3.90345L10.7048 3.8414C10.67 3.8197 10.6119 3.7763 10.5357 3.7194L10.5328 3.71718C10.4573 3.66083 10.3681 3.59436 10.2783 3.53298C10.1892 3.47203 10.0958 3.41353 10.012 3.37448C9.97023 3.35499 9.92724 3.33865 9.88597 3.3301C9.84625 3.32187 9.7967 3.31844 9.7496 3.33806L9.74957 3.33807C9.55536 3.41901 9.34789 3.48765 9.13605 3.55768L9.13391 3.55838C8.96966 3.61267 8.80279 3.66783 8.64127 3.72956C8.6365 3.66506 8.62904 3.60245 8.62042 3.54137C9.37824 3.21299 10.1777 2.98258 11.0034 2.85627L11.7336 3.14973L12.2673 3.78314L12.2672 3.78329L12.272 3.78832L12.8207 4.35408L12.8381 4.372L12.8618 4.37965L13.3415 4.53418L13.3977 4.55231L13.4407 4.51175L14.2026 3.79327L14.2513 3.74731L14.2273 3.68476L14.0375 3.18912V2.86283C15.3962 3.07661 16.6835 3.5732 17.8295 4.32347C17.7155 4.33687 17.5962 4.35215 17.4709 4.36819C17.4437 4.37167 17.4163 4.37519 17.3885 4.37873C17.3306 4.34839 17.269 4.32596 17.2114 4.30691C17.1859 4.2985 17.1619 4.29093 17.1388 4.28366C17.0966 4.27038 17.0577 4.2581 17.0189 4.24348L16.7896 4.15699L16.8929 4.37922C17.2546 5.15683 17.6317 5.92343 18.0145 6.6898C18.1744 7.00998 18.4097 7.34024 18.6427 7.66736C18.7136 7.76698 18.7844 7.8663 18.8527 7.96496C19.1507 8.39516 19.4051 8.81469 19.4803 9.22316C19.5725 9.72312 19.5869 10.2015 19.5906 10.7089C19.5912 10.7876 19.5915 10.8671 19.5918 10.9475C19.5936 11.3833 19.5955 11.8447 19.6392 12.3546C19.6908 12.9575 20.028 13.5911 20.3428 14.066C20.5014 14.3052 20.6567 14.5077 20.7724 14.6505C20.8303 14.7219 20.8783 14.7785 20.9121 14.8173C20.9289 14.8367 20.9422 14.8517 20.9513 14.862L20.9618 14.8737L20.9646 14.8767L20.9654 14.8776L20.9656 14.8778L20.9657 14.8779L21.0394 14.8103M7.46592 10.4628C7.46591 10.4706 7.46589 10.4783 7.46588 10.4861C7.46512 10.9199 7.46445 11.2969 7.55046 11.6415C7.64281 12.0116 7.83606 12.3455 8.2512 12.6581C8.45114 12.8087 8.64713 12.9636 8.84234 13.1179C9.47805 13.6204 10.1054 14.1163 10.8339 14.4343C10.9892 14.5021 11.1824 14.5187 11.4044 14.5065C11.5984 14.4958 11.8049 14.4638 12.0172 14.431C12.0477 14.4263 12.0782 14.4216 12.1089 14.4169C12.3501 14.38 12.5972 14.3458 12.8247 14.3499C13.0523 14.354 13.2717 14.3964 13.4511 14.5225L13.3936 14.6043L13.4511 14.5226C13.5828 14.6152 13.7111 14.7067 13.8374 14.7968C14.5572 15.3101 15.2112 15.7765 16.0409 16.1367L16.001 16.2284L16.0409 16.1367C16.2712 16.2367 16.7291 16.5181 17.0816 16.8522C17.2578 17.0191 17.4146 17.2056 17.5012 17.3954C17.5888 17.5876 17.609 17.796 17.4867 17.9847C17.4577 18.0294 17.4288 18.0738 17.4001 18.1178C17.1552 18.4939 16.9233 18.8501 16.7435 19.2545L7.46592 10.4628ZM7.46592 10.4628L16.7435 19.2545C16.5307 19.7334 16.0276 20.3284 15.6244 20.6395L15.6244 20.6395C15.2257 20.9469 14.7956 21.4609 14.5209 22.0482C16.356 21.6637 18.0422 20.7565 19.3993 19.3993C20.6261 18.1725 21.4855 16.677 21.9232 15.0458C21.7208 15.0545 21.5165 15.0268 21.3551 14.9947C21.2538 14.9746 21.1674 14.9523 21.1062 14.9351C21.0756 14.9265 21.0512 14.9191 21.0342 14.9138L21.0146 14.9075L21.0093 14.9057L21.0078 14.9052L21.0074 14.9051L21.0073 14.905L21.0072 14.905L21.0394 14.8103M21.0394 14.8103L20.9657 14.8779L20.983 14.8968L21.0072 14.905L21.0394 14.8103ZM11.2455 22.1774C9.11466 21.9056 7.14469 20.9434 5.6006 19.3993C3.75758 17.5563 2.74284 15.1064 2.74284 12.5C2.74284 10.2336 3.51051 8.08597 4.92225 6.35244L11.2455 22.1774ZM5.88024 11.4679C5.91375 11.5905 5.9433 11.7151 5.97286 11.8396M5.88024 11.4679L5.97286 11.8396M5.97286 11.8396C5.97554 11.8509 5.97822 11.8622 5.98091 11.8735M5.97286 11.8396L5.98091 11.8735M5.98091 11.8735C6.013 12.0085 6.04551 12.1434 6.08282 12.2713L5.98091 11.8735ZM12.5 0.9C6.09345 0.9 0.9 6.09351 0.9 12.5C0.9 18.9065 6.09345 24.1 12.5 24.1C18.9065 24.1 24.1 18.9065 24.1 12.5C24.1 6.09351 18.9065 0.9 12.5 0.9Z" fill="#F79E44" stroke="#FF8FC6" stroke-width="0.2"/>
</svg>
